<svg width="22" height="22" viewBox="0 0 22 22" fill="none" xmlns="http://www.w3.org/2000/svg">
<path d="M16.0857 1.91436C16.3483 1.65172 16.6601 1.44338 17.0033 1.30124C17.3465 1.1591 17.7143 1.08594 18.0857 1.08594C18.4571 1.08594 18.8249 1.1591 19.1681 1.30124C19.5112 1.44338 19.823 1.65172 20.0857 1.91436C20.3483 2.17701 20.5567 2.48881 20.6988 2.83197C20.841 3.17513 20.9141 3.54293 20.9141 3.91436C20.9141 4.2858 20.841 4.6536 20.6988 4.99676C20.5567 5.33992 20.3483 5.65172 20.0857 5.91436L6.58569 19.4144L1.08569 20.9144L2.58569 15.4144L16.0857 1.91436Z" stroke="#4D4D4D" stroke-width="2" stroke-linecap="round" stroke-linejoin="round"/>
</svg>
