<svg width="117" height="36" viewBox="0 0 117 36" fill="none" xmlns="http://www.w3.org/2000/svg">
<path d="M10.5317 27.3309C7.86063 27.3309 5.62509 26.727 3.82505 25.5192C2.02501 24.2999 0.927563 22.6043 0.532715 20.4327L4.81798 19.4397C5.03863 20.8449 5.67735 21.9366 6.73415 22.7147C7.80256 23.4811 9.12066 23.8644 10.6884 23.8644C12.0123 23.8644 13.1098 23.5682 13.9808 22.976C14.8518 22.3721 15.2814 21.4546 15.2698 20.2236C15.2582 19.7127 15.1305 19.2481 14.8866 18.8301C14.6427 18.412 14.3698 18.0752 14.0679 17.8197C13.7659 17.5526 13.2956 17.2855 12.6569 17.0184C12.0181 16.7513 11.4956 16.5539 11.0891 16.4261C10.6826 16.2984 10.0555 16.1126 9.20776 15.8687C9.10324 15.8339 9.02195 15.8106 8.96388 15.799C8.30193 15.6016 7.76192 15.439 7.34384 15.3113C6.92577 15.1719 6.41479 14.9861 5.8109 14.7538C5.21863 14.51 4.73668 14.2777 4.36506 14.057C3.99344 13.8248 3.59279 13.5344 3.1631 13.186C2.74502 12.826 2.41405 12.4486 2.17017 12.0538C1.93791 11.6589 1.74049 11.1944 1.5779 10.6602C1.41532 10.1144 1.33402 9.52209 1.33402 8.88337C1.33402 6.65364 2.13533 4.91747 3.73795 3.67486C5.35218 2.43225 7.3903 1.81094 9.85229 1.81094C10.9788 1.81094 12.0414 1.93288 13.0401 2.17676C14.0388 2.42063 14.9679 2.78645 15.8273 3.2742C16.6983 3.76196 17.4357 4.4181 18.0396 5.24264C18.6435 6.06717 19.0615 7.01945 19.2938 8.09948L15.2698 9.10982C15.0027 7.83237 14.4047 6.88009 13.4756 6.25298C12.5582 5.61426 11.4201 5.2949 10.0613 5.2949C8.78388 5.2949 7.70966 5.58523 6.83867 6.16588C5.97929 6.74654 5.54961 7.62914 5.54961 8.81369C5.54961 9.13886 5.60767 9.4408 5.7238 9.71952C5.83994 9.98662 5.97349 10.2247 6.12446 10.4337C6.27543 10.6312 6.5135 10.8344 6.83867 11.0434C7.16384 11.2408 7.44255 11.4034 7.67482 11.5312C7.9187 11.6473 8.28451 11.7867 8.77226 11.9492C9.26002 12.1118 9.63745 12.2338 9.90455 12.3151C10.1833 12.3847 10.613 12.5009 11.1936 12.6635C11.7394 12.8144 12.1749 12.9422 12.5001 13.0467C12.8369 13.1396 13.2724 13.279 13.8066 13.4648C14.3408 13.639 14.7705 13.8015 15.0956 13.9525C15.4324 14.1035 15.8215 14.3009 16.2628 14.5448C16.7157 14.7887 17.0815 15.0325 17.3602 15.2764C17.6505 15.5203 17.9467 15.8164 18.2486 16.1648C18.5622 16.5016 18.8002 16.8616 18.9628 17.2449C19.137 17.6165 19.2822 18.0404 19.3983 18.5165C19.5145 18.9926 19.5725 19.5036 19.5725 20.0494C19.5725 21.292 19.3228 22.3895 18.8235 23.3418C18.3357 24.2941 17.668 25.0547 16.8202 25.6238C15.9724 26.1928 15.0143 26.6225 13.9459 26.9128C12.8891 27.1915 11.751 27.3309 10.5317 27.3309Z" fill="black"/>
<path d="M32.1949 9.14466C33.7162 9.14466 35.0982 9.50467 36.3408 10.2247C37.595 10.9447 38.5995 12.0073 39.3544 13.4125C40.1093 14.8061 40.4867 16.4203 40.4867 18.2552C40.4867 19.6488 40.266 20.9262 39.8247 22.0875C39.3951 23.2373 38.8028 24.2011 38.0479 24.9792C37.2931 25.7457 36.4105 26.3438 35.4001 26.7735C34.4014 27.1915 33.333 27.4006 32.1949 27.4006C30.9407 27.4006 29.7968 27.1277 28.7632 26.5818C27.7412 26.036 26.9631 25.287 26.4289 24.3347V35.675H22.4224V9.47564H26.2547L26.3593 12.3325C26.8819 11.3337 27.6599 10.5557 28.6935 9.99823C29.7387 9.42919 30.9058 9.14466 32.1949 9.14466ZM31.3239 24.0037C32.7872 24.0037 34.0123 23.4811 34.9995 22.4359C35.9866 21.3908 36.4801 19.9972 36.4801 18.2552C36.4801 16.5132 35.9866 15.1254 34.9995 14.0919C34.0123 13.0583 32.7872 12.5415 31.3239 12.5415C29.849 12.5415 28.6122 13.0815 27.6135 14.1616C26.6147 15.23 26.1154 16.5945 26.1154 18.2552C26.1154 19.9275 26.6147 21.3037 27.6135 22.3837C28.6122 23.4637 29.849 24.0037 31.3239 24.0037Z" fill="black"/>
<path d="M58.9098 17.9416L58.8576 18.952H45.5315C45.6011 20.6243 46.1121 21.9017 47.0644 22.7843C48.0167 23.6669 49.1954 24.1082 50.6006 24.1082C51.5761 24.1082 52.4413 23.8702 53.1961 23.394C53.9626 22.9179 54.5433 22.2385 54.9381 21.3559L58.5963 21.983C57.9924 23.6669 56.982 24.9792 55.5652 25.9199C54.1484 26.8606 52.5052 27.3309 50.6354 27.3309C47.9063 27.3309 45.7173 26.5238 44.0682 24.9096C42.4191 23.2953 41.5946 21.0714 41.5946 18.2378C41.5946 15.4158 42.4191 13.1919 44.0682 11.566C45.7173 9.94017 47.8657 9.12724 50.5135 9.12724C53.0336 9.12724 55.0601 9.87629 56.593 11.3744C58.1259 12.8609 58.8982 15.05 58.9098 17.9416ZM50.5309 12.106C49.2651 12.106 48.2083 12.4254 47.3605 13.0641C46.5244 13.6912 45.9728 14.6551 45.7057 15.9558H54.8859C54.7349 14.69 54.2704 13.7319 53.4923 13.0815C52.7142 12.4312 51.7271 12.106 50.5309 12.106Z" fill="black"/>
<path d="M70.7135 9.14466C72.6877 9.14466 74.2323 9.67306 75.3471 10.7299C76.462 11.775 77.0194 13.2673 77.0194 15.2067V26.9999H72.978V16.0777C72.978 14.8351 72.6529 13.9177 72.0025 13.3254C71.3638 12.7215 70.5393 12.4196 69.5289 12.4196C68.3211 12.4196 67.334 12.7912 66.5676 13.5344C65.8011 14.2661 65.412 15.3984 65.4004 16.9313V26.9999H61.3939V9.47564H65.4004V11.5486C65.9927 10.7821 66.7418 10.1898 67.6476 9.77178C68.565 9.3537 69.587 9.14466 70.7135 9.14466Z" fill="black"/>
<path d="M93.2477 0.243164H97.2542V26.9999H93.4219L93.3173 24.2128C92.7948 25.1999 92.0109 25.978 90.9657 26.547C89.9321 27.1161 88.7708 27.4006 87.4817 27.4006C86.3436 27.4006 85.2694 27.1857 84.2591 26.756C83.2603 26.3264 82.3835 25.7283 81.6287 24.9618C80.8738 24.1837 80.2758 23.2198 79.8344 22.0701C79.3931 20.9088 79.1725 19.6372 79.1725 18.2552C79.1725 16.8848 79.3931 15.6248 79.8344 14.4751C80.2758 13.3254 80.8738 12.3673 81.6287 11.6009C82.3835 10.8228 83.2661 10.2189 84.2765 9.7892C85.2868 9.35951 86.3552 9.14466 87.4817 9.14466C88.736 9.14466 89.874 9.41757 90.896 9.96339C91.9296 10.4976 92.7135 11.235 93.2477 12.1757V0.243164ZM84.6597 22.4185C85.6585 23.4753 86.8953 24.0037 88.3701 24.0037C89.845 24.0037 91.076 23.4637 92.0631 22.3837C93.0502 21.3037 93.5438 19.9275 93.5438 18.2552C93.5438 16.5945 93.0444 15.2242 92.0457 14.1441C91.0586 13.0641 89.8334 12.5241 88.3701 12.5241C86.8953 12.5241 85.6585 13.0525 84.6597 14.1093C83.6726 15.1545 83.179 16.5365 83.179 18.2552C83.179 19.974 83.6726 21.3617 84.6597 22.4185Z" fill="black"/>
<path d="M112.298 9.47564H116.461L105.975 35.2395H101.881L105.644 26.4251L98.6234 9.47564H103.031L107.577 22.0179L112.298 9.47564Z" fill="black"/>
</svg>
